# xmcd CD database file
#
# Track frame offsets:
#	150
#	18484
#	42558
#	62732
#	80342
#	96447
#	115952
#	130302
#	146491
#	162986
#	181377
#	203612
#	215677
#
# Disc length: 3229 seconds
#
# Revision: 0
# Processed by: cddbd v1.5PL3 Copyright (c) Steve Scherf et al.
# Submitted via: CDex 1.40Release
#
DISCID=be0c9b0d
DTITLE=Tolo Marton - Colours and Notes
DYEAR=1999
DGENRE=Blues
TTITLE0=It's Getting Late
TTITLE1=If There Is
TTITLE2=Fought To Change
TTITLE3=Unvibe
TTITLE4=Feel Down
TTITLE5=Wellcome To America
TTITLE6=Pali Gap
TTITLE7=Questions
TTITLE8=All Along The Watchtower
TTITLE9=I'm Going Home
TTITLE10=One More Train
TTITLE11=Sleepless
TTITLE12=Slim And The Animal
EXTD=YEAR: 1999 ID3G: 0
EXTT0=
EXTT1=
EXTT2=
EXTT3=
EXTT4=
EXTT5=
EXTT6=
EXTT7=
EXTT8=
EXTT9=
EXTT10=
EXTT11=
EXTT12=
PLAYORDER=
